<svg xmlns="http://www.w3.org/2000/svg" width="51" height="51"><g id="グループ_1022" data-name="グループ 1022" transform="translate(-379 -986.611)" stroke="#000"><g id="長方形_642" data-name="長方形 642" transform="translate(379 986.611)" fill="#fff100" stroke-width="1"><rect width="51" height="51" rx="8" stroke="none"/><rect x=".5" y=".5" width="50" height="50" rx="7.5" fill="none"/></g><path id="パス_2828" data-name="パス 2828" d="M405.084 1019.56v.959c0 .288.112.228.422.355a2.378 2.378 0 011.509 2.507 2.777 2.777 0 01-2.685 2.951 2.707 2.707 0 01-2.574-1.553 5.116 5.116 0 01-.355-1.886c-.067-.377-.532-.644-.311-.932a.585.585 0 01.777-.067 10.23 10.23 0 011.154 1.265c.111.156.6 1.243 1.109 1.265.532.022.91-.2.91-.954a1.581 1.581 0 00-.488-1.154c-.333-.311-.954-.91-.954-.91l.034-1.839" stroke-linejoin="round" stroke-width=".5"/><rect id="長方形_522" data-name="長方形 522" width="42.822" height="3.35" transform="translate(383.09 1006.593)" stroke-linejoin="round" stroke-width=".5"/><rect id="長方形_523" data-name="長方形 523" width="21.956" height="12.754" transform="translate(393.523 1001.891)" stroke-linejoin="round" stroke-width=".5"/><rect id="長方形_524" data-name="長方形 524" width="8.823" height="1.499" transform="translate(400.09 1014.645)" stroke-linejoin="round" stroke-width=".5"/><path id="パス_2831" data-name="パス 2831" d="M418.218 1009.58v-2.987h-2.737" stroke-linejoin="round" stroke-width=".5"/><path id="パス_2832" data-name="パス 2832" d="M390.785 1009.58v-2.987h2.739" stroke-linejoin="round" stroke-width=".5"/><path id="長方形_525" data-name="長方形 525" d="M402.556 1016.144h3.744a.206.206 0 01.206.206v1.358a2.078 2.078 0 01-2.078 2.077h0a2.078 2.078 0 01-2.078-2.077v-1.358a.206.206 0 01.206-.206z" stroke-linejoin="round" stroke-width=".5"/></g></svg>