<svg xmlns="http://www.w3.org/2000/svg" width="65.576" height="50.947" viewBox="0 0 65.576 50.947">
  <g id="グループ_954" data-name="グループ 954" transform="translate(-3214.792 -956.518)">
    <g id="グループ_163" data-name="グループ 163">
      <path id="パス_553" data-name="パス 553" d="M3238.583,997.406a.5.5,0,0,1-.251-.933c1.879-1.088,5.025-2.655,12.733-5.141l.042-.012a16.14,16.14,0,1,0-20.169-20.181.508.508,0,0,1-.014.052c-2.485,7.7-4.053,10.851-5.141,12.733a.5.5,0,0,1-.866-.5c1.062-1.835,2.593-4.914,5.041-12.5q0-.018.01-.037a17.141,17.141,0,1,1,21.4,21.4l-.026.007c-7.594,2.451-10.672,3.983-12.506,5.044A.5.5,0,0,1,3238.583,997.406Z" fill="#fff"/>
      <path id="線_53" data-name="線 53" d="M13.3,13.8a.5.5,0,0,1-.354-.146L-.354.354a.5.5,0,0,1,0-.707.5.5,0,0,1,.707,0l13.3,13.3a.5.5,0,0,1-.354.854Z" transform="translate(3221.041 987.919)" fill="#fff"/>
      <path id="線_54" data-name="線 54" d="M11.492,11.992a.5.5,0,0,1-.354-.146L-.354.354a.5.5,0,0,1,0-.707.5.5,0,0,1,.707,0L11.846,11.139a.5.5,0,0,1-.354.854Z" transform="translate(3217.843 992.921)" fill="#fff"/>
      <path id="パス_554" data-name="パス 554" d="M3220.151,1007.464a5.359,5.359,0,0,1-3.792-9.151.5.5,0,0,1,.707.707,4.362,4.362,0,1,0,6.169,6.169.5.5,0,0,1,.707.707A5.346,5.346,0,0,1,3220.151,1007.464Z" fill="#fff"/>
    </g>
    <path id="線_55" data-name="線 55" d="M7.959,1.163l-.042,0L-.042.5A.5.5,0,0,1-.5-.042.5.5,0,0,1,.042-.5L8,.165a.5.5,0,0,1-.041,1Z" transform="translate(3271.91 978.806)" fill="#fff"/>
    <path id="線_56" data-name="線 56" d="M0,2.464a.5.5,0,0,1-.484-.377.5.5,0,0,1,.362-.608L7.617-.485a.5.5,0,0,1,.608.362.5.5,0,0,1-.362.608L.123,2.449A.5.5,0,0,1,0,2.464Z" transform="translate(3271.291 967.841)" fill="#fff"/>
    <path id="線_57" data-name="線 57" d="M0,5.107A.5.5,0,0,1-.408,4.9a.5.5,0,0,1,.12-.7L6.234-.408a.5.5,0,0,1,.7.12.5.5,0,0,1-.12.7L.288,5.016A.5.5,0,0,1,0,5.107Z" transform="translate(3268.061 957.018)" fill="#fff"/>
  </g>
</svg>
