<svg xmlns="http://www.w3.org/2000/svg" width="49.649" height="67.556" viewBox="0 0 49.649 67.556">
  <g id="グループ_1014" data-name="グループ 1014" transform="translate(-1350.45 -1192.903)">
    <path id="パス_2859" data-name="パス 2859" d="M22.384,60.25C4.891,57.241-4.246,40.539,1.929,31.961S22.058,22.717,30.289,26.9C39.74,31.71,40,40.1,34.53,41.7c-3.8,1.113-13.026.259-19.134-6.409C9.052,28.366,8.421,18.7,11.8,14.463,16.028,9.17,21.462,9.2,27.493,10.026c8.414,1.148,13.623,7.735,10.682,10.98-2.48,2.736-9.784-1.286-11.253-8.383-1.25-6.047.564-10.145,5.024-11.86A15.512,15.512,0,0,1,38.375.057" transform="translate(1390.34 1259.297) rotate(-172)" fill="none" stroke="#1a1311" stroke-linecap="round" stroke-miterlimit="10" stroke-width="2"/>
  </g>
</svg>
