<svg xmlns="http://www.w3.org/2000/svg" width="130" height="40.792" viewBox="0 0 130 40.792">
  <g id="グループ_541" data-name="グループ 541" transform="translate(-2235.717 -26.484)">
    <path id="パス_544" data-name="パス 544" d="M2261.705,32.247c-9.037,0-13.5,6.662-13.5,14.432s4.466,14.639,13.5,14.639c2.741,0,8.553-1.164,11.513-5.1.412-.63.575-.841,1.056-.828.247.028.427.279.427.716l-.007,7.422c-4.7,2.991-10.429,3.753-15.5,3.753-14.673,0-23.477-7.974-23.477-20.539,0-13.531,10.4-20.253,25.146-20.253a39.151,39.151,0,0,1,13.87,2.551c-.02.02-.006,8.1-.006,8.1,0,.437-.192.688-.439.716-.48.014-.7-.21-1.166-.9-1.959-2.93-6.777-4.706-11.417-4.706" fill="#159967"/>
    <path id="パス_545" data-name="パス 545" d="M2292.85,43.7c.047-5.055.188-10.048.4-16.4l-.248-.015c-2.337.058-8.624.136-11.964,0l-.006.492c.289,12.958.243,21.925.082,38.734,0,.094,0,.464,0,.464,3.31-.079,7.948-.079,12.066,0l-.047-.647c-.191-6.99-.274-12.493-.29-17.389-.026-.366.467-.618.849-.057,2.37,3.462,10.916,15.916,11.842,17.227.577.813.876.729,1.948.729,1.6,0,6.961-.085,12.142,0,.124,0-16.641-20.745-16.641-20.745l16.146-18.717c-4,.09-8.058.1-11.567.007a1.747,1.747,0,0,0-1.892.8c-.911,1.193-9.292,12.367-11.924,15.625-.519.645-.878.215-.9-.108" fill="#159967"/>
    <path id="パス_546" data-name="パス 546" d="M2336.469,33.56a.437.437,0,0,1,.467-.412c.889-.016,2.9-.076,3.562-.076,7.456,0,12.7,3.659,12.767,12.861.116,16.27-11.9,15.131-13.15,15.131-.453-.009-2.17.041-3.179-.05a.443.443,0,0,1-.438-.451Zm-12.312,33.3c2.9-.23,13.821.143,13.821.143,7.1,0,13.71.072,19.406-4.244a20.391,20.391,0,0,0,8.333-16.719c0-6.419-2.759-11.2-7.784-14.814-5.628-4.083-11.738-3.935-18.706-3.935,0,0-12.853.289-15.082.039l0,.474c.173,7.518.227,26.933-.005,38.8a1.961,1.961,0,0,0,.019.259" fill="#159967"/>
  </g>
</svg>
