<?xml version="1.0" encoding="UTF-8"?>
<svg id="_レイヤー_2" data-name="レイヤー 2" xmlns="http://www.w3.org/2000/svg" width="150mm" height="26.12mm" viewBox="0 0 425.19 74.03">
  <defs>
    <style>
      .cls-1 {
        fill: #231815;
      }

      .cls-2 {
        fill: #f3981c;
      }
    </style>
  </defs>
  <g id="_レイヤー_1-2" data-name="レイヤー 1">
    <g>
      <path class="cls-1" d="M333.54,38.71c.11-.69.18-1.4.18-2.12,0-7.59-6.16-13.75-13.75-13.75s-13.75,6.16-13.75,13.75,6.16,13.75,13.75,13.75c4.69,0,8.83-2.35,11.31-5.94h0c.39-.67.61-1.07.61-1.72,0-1.54-1.25-2.78-2.78-2.78s-2.59,1.74-2.59,1.74c-1.51,1.96-3.86,3.24-6.53,3.24-4.57,0-8.28-3.71-8.28-8.28s3.71-8.28,8.28-8.28c3.49,0,6.46,2.16,7.68,5.21h-7.48c-1.43,0-2.6,1.16-2.6,2.6s1.16,2.6,2.6,2.6h0s7.78,0,7.78,0c0,0,0,0,0,0h5.6Z"/>
      <path class="cls-1" d="M401.99,38.71c.11-.69.18-1.4.18-2.12,0-7.59-6.16-13.75-13.75-13.75s-13.75,6.16-13.75,13.75,6.16,13.75,13.75,13.75c4.69,0,8.83-2.35,11.31-5.94h0c.39-.67.61-1.07.61-1.72,0-1.54-1.25-2.78-2.78-2.78s-2.59,1.74-2.59,1.74c-1.51,1.96-3.86,3.24-6.53,3.24-4.57,0-8.28-3.71-8.28-8.28s3.71-8.28,8.28-8.28c3.49,0,6.46,2.16,7.68,5.21h-7.48c-1.43,0-2.6,1.16-2.6,2.6s1.16,2.6,2.6,2.6h0s7.78,0,7.78,0c0,0,0,0,0,0h5.6Z"/>
      <path class="cls-1" d="M365.5,21.52c2.5,0,4.46-1.91,4.46-4.46s-1.96-4.46-4.46-4.46-4.46,1.91-4.46,4.46,1.96,4.46,4.46,4.46Z"/>
      <path class="cls-1" d="M286.94,50.33c8.03,0,14.57-6.53,14.57-14.57s-6.53-14.57-14.57-14.57h-3.97c-3.66,0-6.63-2.98-6.63-6.63s2.97-6.63,6.63-6.63h12.02c2.19,0,3.97-1.78,3.97-3.97S297.18,0,294.99,0h-12.02c-8.03,0-14.57,6.53-14.57,14.57s6.53,14.57,14.57,14.57h3.97c3.66,0,6.63,2.97,6.63,6.63s-2.97,6.63-6.63,6.63h-14.57c-2.19,0-3.97,1.78-3.97,3.97s1.78,3.97,3.97,3.97h14.57Z"/>
      <path class="cls-1" d="M344.35,22.84c0-1.63-1.33-2.96-2.96-2.96s-2.96,1.33-2.96,2.96v23.9c0,1.99,1.61,3.6,3.6,3.6s3.6-1.61,3.6-3.6v-11.06c.04-2.48,2.64-3.58,3.63-3.58h4.39c1.48,0,2.68-1.2,2.68-2.68s-1.2-2.68-2.68-2.68h-4.39c-1.53,0-3.32.58-4.91,1.64,0,0,0-5.54,0-5.54Z"/>
      <path class="cls-1" d="M369.15,26.49h0c0-2.02-1.63-3.65-3.65-3.65s-3.65,1.63-3.65,3.65h0v20.19c0,2.02,1.63,3.65,3.65,3.65s3.65-1.63,3.65-3.65v-20.19Z"/>
      <path class="cls-1" d="M417.06,50.33c4.49,0,8.14-3.65,8.14-8.13s-3.65-8.14-8.14-8.14h-2.04c-1.52,0-2.76-1.24-2.76-2.76s1.24-2.76,2.76-2.76h7.44c1.49,0,2.69-1.2,2.69-2.69s-1.2-2.69-2.69-2.69h-7.44c-4.49,0-8.13,3.65-8.13,8.13s3.65,8.14,8.13,8.14h2.04c1.52,0,2.76,1.24,2.76,2.76s-1.24,2.76-2.76,2.76h-7.48c-1.49,0-2.69,1.2-2.69,2.69s1.2,2.69,2.69,2.69h7.48Z"/>
      <g>
        <path class="cls-1" d="M330.94,63.07c-.98,0-1.37.84-1.44,1.44h2.75c0-.54-.24-1.44-1.31-1.44Z"/>
        <path class="cls-1" d="M354.86,60.73h-.03c-.15.58-.3,1.32-.47,1.89l-.61,2.08h2.27l-.64-2.08c-.18-.58-.37-1.31-.52-1.89Z"/>
        <path class="cls-1" d="M416.99,55.59h-148.69c-.68,6.18-2.55,11.71-5.43,16.39h154.12c4.53,0,8.2-3.67,8.2-8.2s-3.67-8.2-8.2-8.2ZM319.09,60.89h-3.95v2.24h3.7v1.8h-3.7v3.94h-2.34v-9.81h6.29v1.82ZM324.47,68.88h-2.32v-10.33h2.32v10.33ZM334.32,66.03h-4.81c.08.92,1.02,1.35,2.11,1.35.79,0,1.44-.1,2.06-.29l.3,1.5c-.76.29-1.69.44-2.7.44-2.54,0-3.99-1.4-3.99-3.62,0-1.8,1.18-3.8,3.77-3.8,2.41,0,3.33,1.79,3.33,3.55,0,.38-.05.71-.08.87ZM341.48,68.88l-.75-1.28c-.21-.35-.4-.71-.58-1.08h-.05c-.18.38-.38.73-.57,1.08l-.7,1.28h-2.55l2.54-3.62-2.48-3.49h2.6l.73,1.18c.21.36.41.73.61,1.06h.03c.2-.38.38-.74.58-1.09l.66-1.15h2.52l-2.46,3.39,2.49,3.73h-2.63ZM357.15,68.88l-.79-2.52h-2.95l-.73,2.52h-2.41l3.15-9.81h3.05l3.19,9.81h-2.51ZM366.91,63.71c-.17-.03-.37-.06-.63-.06-.86,0-1.44.44-1.59,1.12-.03.15-.05.32-.05.49v3.61h-2.32v-4.77c0-1.05-.03-1.73-.06-2.34h2l.08,1.31h.06c.38-1.03,1.3-1.47,2.02-1.47.21,0,.32,0,.49.03v2.08ZM380.8,68.88h-2.26v-3.87c0-1.03-.35-1.63-1.1-1.63-.54,0-.92.35-1.07.77-.06.16-.09.39-.09.57v4.16h-2.26v-3.99c0-.9-.34-1.51-1.07-1.51-.6,0-.95.44-1.08.8-.08.17-.09.38-.09.55v4.15h-2.26v-4.85c0-.89-.03-1.64-.06-2.27h1.95l.11.96h.05c.32-.45.98-1.12,2.26-1.12.96,0,1.73.47,2.05,1.21h.03c.27-.36.61-.66.96-.86.41-.23.87-.35,1.42-.35,1.44,0,2.52.96,2.52,3.09v4.19Z"/>
      </g>
      <path class="cls-1" d="M236.19,8.81C236.19,3.95,240.14,0,245.01,0s8.81,3.95,8.81,8.81v41.45c0,14.89-8.83,23.77-23.63,23.77-5.54,0-12.54-1.63-16.66-6.07-4.12,4.44-11.12,6.07-16.66,6.07-14.8,0-23.63-8.89-23.63-23.77V8.81C173.24,3.95,177.18,0,182.05,0s8.81,3.95,8.81,8.81h0v40.41c0,3.31,2.7,6.01,6.01,6.01s6.01-2.7,6.01-6.01v-24.17c0-5.87,4.78-10.65,10.65-10.65s10.65,4.78,10.65,10.64v24.17c0,3.31,2.7,6.01,6.01,6.01s6.01-2.7,6.01-6.01V8.81h0Z"/>
      <path class="cls-1" d="M145.92,64.99v-14.87h-32.11s-.03,0-.05,0c-4.65,0-8.42-3.77-8.42-8.42s3.77-8.42,8.42-8.42c.02,0,.03,0,.05,0h0s32.11,0,32.11,0v-7.9c0-5.41-2.91-8.94-7.38-8.94h-28.13c-4.47,0-7.38,3.54-7.38,8.94v39.62h0c0,5-4.05,9.05-9.05,9.05s-9.05-4.05-9.05-9.05V26.2C84.93,10.61,95.23,0,110.41,0h28.13C153.72,0,164.01,10.61,164.01,26.2v38.78c0,5-4.05,9.05-9.05,9.05s-9.05-4.05-9.05-9.05h0Z"/>
      <path class="cls-2" d="M219.17,24.75c0-3.12-2.53-5.64-5.64-5.64s-5.64,2.53-5.64,5.64v12.06h11.29v-12.06Z"/>
      <path class="cls-2" d="M114.14,36.05c-3.12,0-5.64,2.53-5.64,5.64s2.53,5.64,5.64,5.64h12.06v-11.29h-12.06Z"/>
      <g>
        <path class="cls-1" d="M69.49,28.37H18.13s-.04-.02-.04-.04v-7.72c0-3.34,1.39-5.01,5.66-5.01h45.69c4.47,0,8.05-3.76,7.78-8.28-.25-4.17-3.91-7.32-8.09-7.32H19.22C7.43,0,0,8.54,0,19.87v44.77c0,4.84,3.65,9.08,8.48,9.38,5.25.32,9.61-3.85,9.61-9.03h0v-19.73s.02-.04.04-.04h51.35c4.65,0,8.42-3.77,8.42-8.42s-3.77-8.42-8.42-8.42Z"/>
        <path class="cls-2" d="M68.93,13.44c3.12,0,5.64-2.53,5.64-5.64s-2.53-5.64-5.64-5.64h-12.06s0,11.29,0,11.29h12.06Z"/>
      </g>
    </g>
  </g>
</svg>